<svg xmlns="http://www.w3.org/2000/svg" id="prefix__stripe-seeklogo_com" width="198" height="82.39" viewBox="0 0 198 82.39">
    <path id="prefix__Path_1612" d="M13.915 32.285c0-2.145 1.76-2.97 4.675-2.97a30.677 30.677 0 0 1 13.64 3.52V19.91a36.271 36.271 0 0 0-13.64-2.53C7.425 17.38 0 23.21 0 32.945 0 48.125 20.9 45.7 20.9 52.25c0 2.53-2.2 3.355-5.28 3.355C11.055 55.6 5.225 53.735.6 51.2v13.09a38.127 38.127 0 0 0 15.02 3.14c11.44 0 19.305-5.665 19.305-15.51-.055-16.39-21.01-13.475-21.01-19.635zM51.1 6.38L37.675 9.24 37.62 53.3a13.82 13.82 0 0 0 14.245 14.13c4.51 0 7.81-.825 9.625-1.815V54.45c-1.76.715-10.45 3.245-10.45-4.9V30.03h10.45V18.315H51.04zm27.5 16.005l-.88-4.07H65.835V66.44h13.75V33.825c3.245-4.235 8.745-3.465 10.45-2.86v-12.65c-1.76-.66-8.195-1.87-11.44 4.07zm14.8-4.07h13.8V66.44H93.39zm0-4.18l13.8-2.97V0L93.39 2.915zm42.5 3.245a15.538 15.538 0 0 0-10.78 4.29l-.715-3.41h-12.1v64.13l13.75-2.915.055-15.565a15.489 15.489 0 0 0 9.735 3.465c9.845 0 18.81-7.92 18.81-25.355-.05-15.95-9.125-24.64-18.755-24.64zm-3.3 37.895a8.222 8.222 0 0 1-6.49-2.585l-.055-20.4a8.186 8.186 0 0 1 6.545-2.7c5.005 0 8.47 5.61 8.47 12.815.005 7.37-3.405 12.87-8.47 12.87zM198 42.57c0-14.08-6.82-25.19-19.855-25.19-13.09 0-21.01 11.11-21.01 25.08 0 16.555 9.35 24.915 22.77 24.915A30.667 30.667 0 0 0 195.14 63.8v-11a29.205 29.205 0 0 1-13.475 3.025c-5.335 0-10.065-1.87-10.67-8.36h26.9c-.005-.715.105-3.575.105-4.895zm-27.17-5.225c0-6.215 3.795-8.8 7.26-8.8 3.355 0 6.93 2.585 6.93 8.8z" data-name="Path 1612" style="fill:#f2e4eb"/>
    <path id="prefix__Path_1615" d="M51.1 6.38L37.675 9.24 37.62 53.3a13.82 13.82 0 0 0 14.245 14.13c4.51 0 7.81-.825 9.625-1.815V54.45c-1.76.715-10.45 3.245-10.45-4.9V30.03h10.45V18.315H51.04z" data-name="Path 1615" style="fill:#752651"/>
</svg>
